# xmcd
#
# Track frame offsets:
#	150
#	19644
#	36677
#	49651
#	68844
#	85124
#	100931
#	115247
#	129268
#	145980
#	160490
#	174964
#	192238
#	205025
#	221082
#	221928
#	222748
#	223964
#	224986
#	225813
#	226798
#	227740
#	228696
#	229596
#	230504
#	231797
#	232843
#	233823
#	234760
#	235693
#	236708
#	237627
#	238590
#	239556
#	240773
#	241705
#	242676
#	243551
#	244441
#	245291
#	246223
#	247355
#	248349
#	249244
#	250131
#
# Disc length: 3342 seconds
#
# Revision: 1
# Processed by: cddbd v1.5.2PL0 Copyright (c) Steve Scherf et al.
# Submitted via: audiograbber 1.83.01
#
DISCID=7e0d0c2d
DTITLE=Various Artist - CDX 618
DYEAR=2015
DGENRE=Country
TTITLE0=Billy Currington - Drinkin' Town With A Football Problem
TTITLE1=Keith Urban - John Cougar, John Deere, John 316
TTITLE2=Jake - Owen - Real Life (Album Edit)
TTITLE3=Dierks Bentley - Riser
TTITLE4=Tyler Farr - Withdrawals
TTITLE5=Sammy Kershaw - Grillin' and Chillin'
TTITLE6=Sawyer Brown - We Got The Night
TTITLE7=Brandon Holland - Blame It On The Whiskey
TTITLE8=Levi Riggs - Nothin' I Don't Love
TTITLE9=Allie Louise - Perfect Storm
TTITLE10=Blair Mathews - Ride
TTITLE11=Brian Collins - Shine A Little Love
TTITLE12=McKenna Faith - Somethin' Somethin'
TTITLE13=Claire Petrie - Somewhere Off The Map
TTITLE14=Philip Claypool - Home Town Country (Liner)
TTITLE15=Philip Claypool - Kickin' Country (Liner)
TTITLE16=Philip Claypool - My New Single (Liner)
TTITLE17=Philip Claypool - Super Country (Liner)
TTITLE18=Philip Claypool - The Best In Country Music (Liner)
TTITLE19=Philip Claypool - Today's Best Country (Liner)
TTITLE20=Philip Claypool - Today's Hot Country Music (Liner)
TTITLE21=Josh Goodlett - Home Town Country (Liner)
TTITLE22=Josh Goodlett - Kickin' Country (Liner)
TTITLE23=Josh Goodlett - More of the Country You Love (Liner)
TTITLE24=Josh Goodlett - My New Single (Liner)
TTITLE25=Josh Goodlett - Super Country (Liner)
TTITLE26=Josh Goodlett - The Best In Country Music (Liner)
TTITLE27=Josh Goodlett - Today's Best Country (Liner)
TTITLE28=Josh Goodlett - Today's Hot Country Music (Liner)
TTITLE29=Joe Schmidt - Greatest Hits of All Time (Liner)
TTITLE30=Joe Schmidt - Home Town Country (Liner)
TTITLE31=Joe Schmidt - Kickin' Country (Liner)
TTITLE32=Joe Schmidt - More of the Country You Love Next (Liner)
TTITLE33=Joe Schmidt - My New Single (Liner)
TTITLE34=Joe Schmidt - The Best In Country Music (Liner)
TTITLE35=Joe Schmidt - Today's Best Country (Liner)
TTITLE36=Joe Schmidt - Today's Hot Country Music (Liner)
TTITLE37=Jon Wolfe - Home Town Country (Liner)
TTITLE38=Jon Wolfe - Kickin' Country (Liner)
TTITLE39=Jon Wolfe - More of the Country You Love Next (Liner)
TTITLE40=Jon Wolfe - My New Single (Liner)
TTITLE41=Jon Wolfe - Super Country (Liner)
TTITLE42=Jon Wolfe - The Best In Country Music (Liner)
TTITLE43=Jon Wolfe - Today's Best Country (Liner)
TTITLE44=Jon Wolfe - Today's Hot Country Music (Liner)
EXTD=
EXTT0=
EXTT1=
EXTT2=
EXTT3=
EXTT4=
EXTT5=
EXTT6=
EXTT7=
EXTT8=
EXTT9=
EXTT10=
EXTT11=
EXTT12=
EXTT13=
EXTT14=
EXTT15=
EXTT16=
EXTT17=
EXTT18=
EXTT19=
EXTT20=
EXTT21=
EXTT22=
EXTT23=
EXTT24=
EXTT25=
EXTT26=
EXTT27=
EXTT28=
EXTT29=
EXTT30=
EXTT31=
EXTT32=
EXTT33=
EXTT34=
EXTT35=
EXTT36=
EXTT37=
EXTT38=
EXTT39=
EXTT40=
EXTT41=
EXTT42=
EXTT43=
EXTT44=
PLAYORDER=
